<?xml version="1.0" encoding="UTF-8"?>
<svg xmlns="http://www.w3.org/2000/svg" viewBox="0 0 480 280" font-family="sans-serif">
  <text x="240" y="25" text-anchor="middle" font-size="14" font-weight="bold" fill="#333">K-Means 군집화 (K=3)</text>
  <rect x="20" y="35" width="440" height="220" rx="6" fill="#fafafa" stroke="#eee"/>
  <!-- Cluster A (blue) -->
  <circle cx="100" cy="100" r="6" fill="#4A90D9" opacity="0.75"/>
  <circle cx="120" cy="130" r="6" fill="#4A90D9" opacity="0.75"/>
  <circle cx="85" cy="140" r="6" fill="#4A90D9" opacity="0.75"/>
  <circle cx="140" cy="110" r="6" fill="#4A90D9" opacity="0.75"/>
  <circle cx="110" cy="155" r="6" fill="#4A90D9" opacity="0.75"/>
  <circle cx="75" cy="115" r="6" fill="#4A90D9" opacity="0.75"/>
  <!-- Cluster A centroid -->
  <polygon points="107,82 112,96 127,96 116,105 120,119 107,110 94,119 98,105 87,96 102,96" fill="#4A90D9" stroke="white" stroke-width="1.5"/>
  <text x="107" y="77" text-anchor="middle" font-size="10" fill="#4A90D9">중심점</text>
  <!-- Cluster B (green) -->
  <circle cx="255" cy="80" r="6" fill="#27AE60" opacity="0.75"/>
  <circle cx="285" cy="100" r="6" fill="#27AE60" opacity="0.75"/>
  <circle cx="270" cy="125" r="6" fill="#27AE60" opacity="0.75"/>
  <circle cx="240" cy="110" r="6" fill="#27AE60" opacity="0.75"/>
  <circle cx="300" cy="75" r="6" fill="#27AE60" opacity="0.75"/>
  <circle cx="260" cy="145" r="6" fill="#27AE60" opacity="0.75"/>
  <!-- Cluster B centroid -->
  <polygon points="270,60 275,74 290,74 279,83 283,97 270,88 257,97 261,83 250,74 265,74" fill="#27AE60" stroke="white" stroke-width="1.5"/>
  <text x="270" y="55" text-anchor="middle" font-size="10" fill="#27AE60">중심점</text>
  <!-- Cluster C (red) -->
  <circle cx="380" cy="170" r="6" fill="#E74C3C" opacity="0.75"/>
  <circle cx="400" cy="195" r="6" fill="#E74C3C" opacity="0.75"/>
  <circle cx="360" cy="200" r="6" fill="#E74C3C" opacity="0.75"/>
  <circle cx="415" cy="170" r="6" fill="#E74C3C" opacity="0.75"/>
  <circle cx="370" cy="225" r="6" fill="#E74C3C" opacity="0.75"/>
  <circle cx="395" cy="225" r="6" fill="#E74C3C" opacity="0.75"/>
  <!-- Cluster C centroid -->
  <polygon points="388,152 393,166 408,166 397,175 401,189 388,180 375,189 379,175 368,166 383,166" fill="#E74C3C" stroke="white" stroke-width="1.5"/>
  <text x="388" y="147" text-anchor="middle" font-size="10" fill="#E74C3C">중심점</text>
  <!-- Legend -->
  <text x="240" y="268" text-anchor="middle" font-size="10" fill="#888">★ = 군집 중심점(Centroid)&#160;|&#160;각 점은 가장 가까운 중심점에 할당됨</text>
</svg>
