<?xml version="1.0" encoding="UTF-8"?>
<svg xmlns="http://www.w3.org/2000/svg" viewBox="0 0 480 280" width="480" height="280" font-family="sans-serif">
  <text x="240" y="22" text-anchor="middle" font-size="14" font-weight="bold" fill="#333">선형회귀 — 최소제곱법 (MSE 최소화)</text>
  <line x1="50" y1="240" x2="440" y2="240" stroke="#999" stroke-width="1.5"/>
  <line x1="50" y1="240" x2="50" y2="42" stroke="#999" stroke-width="1.5"/>
  <polygon points="436,236 443,240 436,244" fill="#999"/>
  <polygon points="46,46 50,40 54,46" fill="#999"/>
  <text x="448" y="244" font-size="12" fill="#666">x</text>
  <text x="55" y="40" font-size="12" fill="#666">y</text>
  <line x1="60" y1="218" x2="430" y2="75" stroke="#E74C3C" stroke-width="2.5"/>
  <text x="432" y="72" font-size="11" fill="#E74C3C">ŷ=wx+b</text>
  <circle cx="95" cy="198" r="5" fill="#4A90D9"/>
  <line x1="95" y1="198" x2="95" y2="209" stroke="#F5A623" stroke-width="1.5" stroke-dasharray="3,2"/>
  <circle cx="145" cy="172" r="5" fill="#4A90D9"/>
  <line x1="145" y1="172" x2="145" y2="189" stroke="#F5A623" stroke-width="1.5" stroke-dasharray="3,2"/>
  <circle cx="195" cy="165" r="5" fill="#4A90D9"/>
  <line x1="195" y1="157" x2="195" y2="165" stroke="#F5A623" stroke-width="1.5" stroke-dasharray="3,2"/>
  <circle cx="245" cy="130" r="5" fill="#4A90D9"/>
  <line x1="245" y1="130" x2="245" y2="140" stroke="#F5A623" stroke-width="1.5" stroke-dasharray="3,2"/>
  <circle cx="295" cy="105" r="5" fill="#4A90D9"/>
  <line x1="295" y1="105" x2="295" y2="122" stroke="#F5A623" stroke-width="1.5" stroke-dasharray="3,2"/>
  <circle cx="345" cy="95" r="5" fill="#4A90D9"/>
  <line x1="345" y1="95" x2="345" y2="104" stroke="#F5A623" stroke-width="1.5" stroke-dasharray="3,2"/>
  <circle cx="395" cy="83" r="5" fill="#4A90D9"/>
  <line x1="395" y1="83" x2="395" y2="88" stroke="#F5A623" stroke-width="1.5" stroke-dasharray="3,2"/>
  <line x1="95" y1="198" x2="115" y2="200" stroke="#F5A623" stroke-width="1"/>
  <text x="120" y="195" font-size="10" fill="#F5A623">오차(잔차)</text>
  <text x="120" y="208" font-size="10" fill="#F5A623">= y - ŷ</text>
  <rect x="50" y="250" width="380" height="24" rx="4" fill="#FEF9E7" stroke="#F5A623" stroke-width="1"/>
  <text x="240" y="266" text-anchor="middle" font-size="11" fill="#555">MSE = (1/n) &#215; &#931;(y&#8722;ŷ)&#178;&#160;&#160;|&#160;&#160;w, b를 조정해 MSE 최소화</text>
</svg>
