<?xml version="1.0" encoding="UTF-8"?>
<svg xmlns="http://www.w3.org/2000/svg" viewBox="0 0 480 260" width="480" height="260" font-family="sans-serif">
  <text x="240" y="22" text-anchor="middle" font-size="14" font-weight="bold" fill="#333">다항회귀 — 차수(Degree)와 과대적합</text>
  <line x1="16" y1="215" x2="160" y2="215" stroke="#eee" stroke-width="1"/>
  <line x1="170" y1="215" x2="315" y2="215" stroke="#eee" stroke-width="1"/>
  <line x1="325" y1="215" x2="464" y2="215" stroke="#eee" stroke-width="1"/>
  <text x="88" y="40" text-anchor="middle" font-size="11" font-weight="bold" fill="#aaa">차수 1 (과소적합)</text>
  <text x="242" y="40" text-anchor="middle" font-size="11" font-weight="bold" fill="#27AE60">차수 2 (적정)</text>
  <text x="394" y="40" text-anchor="middle" font-size="11" font-weight="bold" fill="#E74C3C">차수 5+ (과대적합)</text>
  <g fill="#4A90D9">
    <circle cx="30" cy="170" r="4"/>
    <circle cx="50" cy="140" r="4"/>
    <circle cx="70" cy="100" r="4"/>
    <circle cx="90" cy="90" r="4"/>
    <circle cx="110" cy="95" r="4"/>
    <circle cx="130" cy="115" r="4"/>
    <circle cx="150" cy="155" r="4"/>
  </g>
  <line x1="20" y1="165" x2="160" y2="110" stroke="#aaa" stroke-width="2"/>
  <text x="88" y="205" text-anchor="middle" font-size="10" fill="#aaa">직선 — 곡선 패턴 미반영</text>
  <g fill="#4A90D9">
    <circle cx="184" cy="170" r="4"/>
    <circle cx="204" cy="140" r="4"/>
    <circle cx="224" cy="100" r="4"/>
    <circle cx="244" cy="90" r="4"/>
    <circle cx="264" cy="95" r="4"/>
    <circle cx="284" cy="115" r="4"/>
    <circle cx="304" cy="155" r="4"/>
  </g>
  <path d="M 175,175 Q 244,70 312,162" fill="none" stroke="#27AE60" stroke-width="2.5"/>
  <text x="242" y="205" text-anchor="middle" font-size="10" fill="#27AE60">포물선 — 데이터 패턴 잘 반영</text>
  <g fill="#4A90D9">
    <circle cx="338" cy="170" r="4"/>
    <circle cx="358" cy="140" r="4"/>
    <circle cx="378" cy="100" r="4"/>
    <circle cx="398" cy="90" r="4"/>
    <circle cx="418" cy="95" r="4"/>
    <circle cx="438" cy="115" r="4"/>
    <circle cx="458" cy="155" r="4"/>
  </g>
  <path d="M 330,172 C 338,168 348,130 358,140 C 368,150 372,78 378,100 C 384,122 390,82 398,90 C 406,98 412,118 418,95 C 424,72 436,125 438,115 C 442,105 452,175 462,152" fill="none" stroke="#E74C3C" stroke-width="2.5"/>
  <text x="394" y="205" text-anchor="middle" font-size="10" fill="#E74C3C">고차 곡선 — 훈련 데이터에 과적합</text>
  <rect x="16" y="228" width="448" height="24" rx="4" fill="#f5f5f5" stroke="#ddd" stroke-width="1"/>
  <text x="240" y="244" text-anchor="middle" font-size="10" fill="#888">차수 &#x2191; → 오차 &#x2193; but 새 데이터 예측 &#x2193;&#160;|&#160;Ridge/Lasso로 차수 자동 조절 (규제)</text>
</svg>
