<?xml version="1.0" encoding="UTF-8"?>
<svg xmlns="http://www.w3.org/2000/svg" viewBox="0 0 560 280" width="560" height="280" font-family="sans-serif">
  <text x="280" y="22" text-anchor="middle" font-size="14" font-weight="bold" fill="#333">랜덤 포레스트 — 배깅 앙상블</text>
  <rect x="210" y="35" width="140" height="38" rx="6" fill="#EBF4FF" stroke="#4A90D9" stroke-width="1.5"/>
  <text x="280" y="59" text-anchor="middle" font-size="12" fill="#4A90D9">훈련 데이터</text>
  <line x1="230" y1="73" x2="100" y2="103" stroke="#bbb" stroke-width="1.5" stroke-dasharray="4,3"/>
  <line x1="280" y1="73" x2="280" y2="103" stroke="#bbb" stroke-width="1.5" stroke-dasharray="4,3"/>
  <line x1="330" y1="73" x2="460" y2="103" stroke="#bbb" stroke-width="1.5" stroke-dasharray="4,3"/>
  <text x="280" y="91" text-anchor="middle" font-size="9" fill="#aaa">부트스트랩 샘플링 (복원 추출)</text>
  <rect x="25" y="103" width="150" height="95" rx="6" fill="#EDFFF4" stroke="#27AE60" stroke-width="1.5"/>
  <text x="100" y="122" text-anchor="middle" font-size="11" font-weight="bold" fill="#27AE60">트리 1</text>
  <line x1="100" y1="130" x2="70" y2="150" stroke="#27AE60" stroke-width="1.5"/>
  <line x1="100" y1="130" x2="130" y2="150" stroke="#27AE60" stroke-width="1.5"/>
  <line x1="70" y1="150" x2="55" y2="170" stroke="#27AE60" stroke-width="1.2"/>
  <line x1="70" y1="150" x2="85" y2="170" stroke="#27AE60" stroke-width="1.2"/>
  <circle cx="100" cy="128" r="5" fill="#27AE60"/>
  <circle cx="70" cy="148" r="5" fill="#27AE60"/>
  <circle cx="130" cy="148" r="5" fill="#27AE60"/>
  <text x="100" y="190" text-anchor="middle" font-size="10" fill="#E74C3C">예측: 클래스 A</text>
  <rect x="205" y="103" width="150" height="95" rx="6" fill="#EDFFF4" stroke="#27AE60" stroke-width="1.5"/>
  <text x="280" y="122" text-anchor="middle" font-size="11" font-weight="bold" fill="#27AE60">트리 2</text>
  <line x1="280" y1="130" x2="250" y2="150" stroke="#27AE60" stroke-width="1.5"/>
  <line x1="280" y1="130" x2="310" y2="150" stroke="#27AE60" stroke-width="1.5"/>
  <line x1="310" y1="150" x2="295" y2="170" stroke="#27AE60" stroke-width="1.2"/>
  <line x1="310" y1="150" x2="325" y2="170" stroke="#27AE60" stroke-width="1.2"/>
  <circle cx="280" cy="128" r="5" fill="#27AE60"/>
  <circle cx="250" cy="148" r="5" fill="#27AE60"/>
  <circle cx="310" cy="148" r="5" fill="#27AE60"/>
  <text x="280" y="190" text-anchor="middle" font-size="10" fill="#E74C3C">예측: 클래스 A</text>
  <rect x="385" y="103" width="150" height="95" rx="6" fill="#EDFFF4" stroke="#27AE60" stroke-width="1.5"/>
  <text x="460" y="122" text-anchor="middle" font-size="11" font-weight="bold" fill="#27AE60">트리 3</text>
  <line x1="460" y1="130" x2="430" y2="150" stroke="#27AE60" stroke-width="1.5"/>
  <line x1="460" y1="130" x2="490" y2="150" stroke="#27AE60" stroke-width="1.5"/>
  <line x1="430" y1="150" x2="415" y2="170" stroke="#27AE60" stroke-width="1.2"/>
  <line x1="430" y1="150" x2="445" y2="170" stroke="#27AE60" stroke-width="1.2"/>
  <circle cx="460" cy="128" r="5" fill="#27AE60"/>
  <circle cx="430" cy="148" r="5" fill="#27AE60"/>
  <circle cx="490" cy="148" r="5" fill="#27AE60"/>
  <text x="460" y="190" text-anchor="middle" font-size="10" fill="#4A90D9">예측: 클래스 B</text>
  <line x1="100" y1="198" x2="220" y2="228" stroke="#bbb" stroke-width="1.5"/>
  <line x1="280" y1="198" x2="280" y2="228" stroke="#bbb" stroke-width="1.5"/>
  <line x1="460" y1="198" x2="340" y2="228" stroke="#bbb" stroke-width="1.5"/>
  <rect x="160" y="228" width="240" height="42" rx="6" fill="#FDEDEC" stroke="#E74C3C" stroke-width="2"/>
  <text x="280" y="248" text-anchor="middle" font-size="12" font-weight="bold" fill="#E74C3C">다수결 투표</text>
  <text x="280" y="263" text-anchor="middle" font-size="11" fill="#333">A 2표 vs B 1표 → 최종: 클래스 A</text>
</svg>
